<svg>
	<defs>
	<symbol id="sun-icon" viewBox="0 0 219.786 219.786" fill="none" xmlns="http://www.w3.org/2000/svg">
			<path fill="currentColor" d="M109.881,183.46c-4.142,0-7.5,3.358-7.5,7.5v21.324c0,4.142,3.358,7.5,7.5,7.5c4.143,0,7.5-3.358,7.5-7.5V190.96
				C117.381,186.817,114.023,183.46,109.881,183.46z"/>
			<path fill="currentColor" d="M109.881,36.329c4.143,0,7.5-3.358,7.5-7.5V7.503c0-4.142-3.357-7.5-7.5-7.5c-4.142,0-7.5,3.358-7.5,7.5v21.326
				C102.381,32.971,105.739,36.329,109.881,36.329z"/>
			<path fill="currentColor" d="M47.269,161.909l-15.084,15.076c-2.93,2.928-2.931,7.677-0.003,10.606c1.465,1.465,3.385,2.198,5.305,2.198
				c1.919,0,3.837-0.732,5.302-2.195l15.084-15.076c2.93-2.928,2.931-7.677,0.003-10.606
				C54.946,158.982,50.198,158.982,47.269,161.909z"/>
			<path fill="currentColor" d="M167.208,60.067c1.919,0,3.838-0.732,5.303-2.196l15.082-15.076c2.929-2.929,2.93-7.677,0.002-10.607
				c-2.929-2.93-7.677-2.931-10.607-0.001l-15.082,15.076c-2.929,2.928-2.93,7.677-0.002,10.606
				C163.368,59.335,165.288,60.067,167.208,60.067z"/>
			<path fill="currentColor" d="M36.324,109.895c0-4.142-3.358-7.5-7.5-7.5H7.5c-4.142,0-7.5,3.358-7.5,7.5c0,4.142,3.358,7.5,7.5,7.5h21.324
				C32.966,117.395,36.324,114.037,36.324,109.895z"/>
			<path fill="currentColor" d="M212.286,102.395h-21.334c-4.143,0-7.5,3.358-7.5,7.5c0,4.142,3.357,7.5,7.5,7.5h21.334c4.143,0,7.5-3.358,7.5-7.5
				C219.786,105.754,216.429,102.395,212.286,102.395z"/>
			<path fill="currentColor" d="M47.267,57.871c1.464,1.464,3.384,2.196,5.303,2.196c1.919,0,3.839-0.732,5.303-2.196c2.929-2.929,2.929-7.678,0-10.607
				L42.797,32.188c-2.929-2.929-7.678-2.929-10.606,0c-2.929,2.929-2.929,7.678,0,10.606L47.267,57.871z"/>
			<path fill="currentColor" d="M172.52,161.911c-2.929-2.929-7.678-2.93-10.607-0.001c-2.93,2.929-2.93,7.678-0.001,10.606l15.074,15.076
				c1.465,1.465,3.384,2.197,5.304,2.197c1.919,0,3.839-0.732,5.303-2.196c2.93-2.929,2.93-7.678,0.001-10.606L172.52,161.911z"/>
			<path fill="currentColor" d="M109.889,51.518c-32.187,0-58.373,26.188-58.373,58.377c0,32.188,26.186,58.375,58.373,58.375
				c32.19,0,58.378-26.187,58.378-58.375C168.267,77.706,142.078,51.518,109.889,51.518z M109.889,153.27
				c-23.916,0-43.373-19.458-43.373-43.375c0-23.918,19.457-43.377,43.373-43.377c23.919,0,43.378,19.459,43.378,43.377
				C153.267,133.812,133.808,153.27,109.889,153.27z"/>
	</symbol>

	<symbol id="moon-icon" viewBox="0 0 480 480" fill="none" xmlns="http://www.w3.org/2000/svg">
		<path fill="currentColor" d="M459.782,347.328c-4.288-5.28-11.488-7.232-17.824-4.96c-17.76,6.368-37.024,9.632-57.312,9.632
			c-97.056,0-176-78.976-176-176c0-58.4,28.832-112.768,77.12-145.472c5.472-3.712,8.096-10.4,6.624-16.832
			S285.638,2.4,279.078,1.44C271.59,0.352,264.134,0,256.646,0c-132.352,0-240,107.648-240,240s107.648,240,240,240
			c84,0,160.416-42.688,204.352-114.176C464.55,360.032,464.038,352.64,459.782,347.328z"/>
	</symbol>

	<symbol id="menue-icon" xmlns="http://www.w3.org/2000/svg" viewBox="0 0 512 512" fill="none">
		<path fill="currentColor" d="M501.333,96H10.667C4.779,96,0,100.779,0,106.667s4.779,10.667,10.667,10.667h490.667c5.888,0,10.667-4.779,10.667-10.667
			S507.221,96,501.333,96z"/>
		<path fill="currentColor" d="M501.333,245.333H10.667C4.779,245.333,0,250.112,0,256s4.779,10.667,10.667,10.667h490.667
			c5.888,0,10.667-4.779,10.667-10.667S507.221,245.333,501.333,245.333z"/>
		<path fill="currentColor" d="M501.333,394.667H10.667C4.779,394.667,0,399.445,0,405.333C0,411.221,4.779,416,10.667,416h490.667
			c5.888,0,10.667-4.779,10.667-10.667C512,399.445,507.221,394.667,501.333,394.667z"/>
	</symbol>

	<symbol id="close-icon" xmlns="http://www.w3.org/2000/svg" viewBox="0 0 512 512" fill="none">
		<path fill="currentColor" d="M228.929,205.01L404.596,29.343c6.78-6.548,6.968-17.352,0.42-24.132c-6.548-6.78-17.352-6.968-24.132-0.42
			c-0.142,0.137-0.282,0.277-0.42,0.42L204.796,180.878L29.129,5.21c-6.78-6.548-17.584-6.36-24.132,0.42
			c-6.388,6.614-6.388,17.099,0,23.713L180.664,205.01L4.997,380.677c-6.663,6.664-6.663,17.468,0,24.132
			c6.664,6.662,17.468,6.662,24.132,0l175.667-175.667l175.667,175.667c6.78,6.548,17.584,6.36,24.132-0.42
			c6.387-6.614,6.387-17.099,0-23.712L228.929,205.01z"/>
	</symbol>
</svg>
